<?xml version="1.0" standalone="no"?>
<!DOCTYPE svg PUBLIC "-//W3C//DTD SVG 20010904//EN"
 "http://www.w3.org/TR/2001/REC-SVG-20010904/DTD/svg10.dtd">
<svg version="1.0" xmlns="http://www.w3.org/2000/svg"
 width="256.000000pt" height="249.000000pt" viewBox="0 0 256.000000 249.000000"
 preserveAspectRatio="xMidYMid meet">

<g transform="translate(0.000000,249.000000) scale(0.100000,-0.100000)"
fill="#000000" stroke="none">
<path d="M1450 2471 c-47 -10 -134 -39 -195 -64 -113 -46 -275 -87 -425 -107
-47 -6 -89 -16 -95 -22 -7 -8 -6 -9 3 -4 11 7 14 3 16 -26 1 -7 6 -19 13 -25
6 -7 17 -38 24 -68 11 -51 15 -56 56 -76 55 -27 98 -84 112 -150 12 -57 15
-258 3 -276 -9 -15 -115 5 -219 41 -40 14 -73 21 -73 16 0 -17 126 -70 211
-89 76 -16 93 -17 150 -5 100 20 198 63 205 89 3 12 4 63 2 113 -2 49 0 88 5
85 11 -6 62 -111 76 -155 7 -21 16 -38 20 -38 4 0 54 7 112 16 154 23 389 34
497 23 117 -12 258 -48 345 -87 l67 -31 0 26 c0 50 -42 230 -71 301 -76 192
-264 395 -440 477 -30 13 -59 25 -64 25 -6 0 -9 -17 -7 -40 7 -67 -96 -359
-121 -343 -6 4 -7 1 -2 -6 4 -7 -1 -30 -10 -52 l-18 -38 -47 67 c-26 37 -66
84 -89 105 -22 21 -41 42 -41 48 0 19 183 200 197 194 8 -2 12 -1 8 4 -10 16
55 62 79 55 19 -5 19 -4 -4 12 -36 26 -171 29 -280 5z"/>
<path d="M588 2443 c7 -3 16 -2 19 1 4 3 -2 6 -13 5 -11 0 -14 -3 -6 -6z"/>
<path d="M1761 2384 c0 -11 3 -14 6 -6 3 7 2 16 -1 19 -3 4 -6 -2 -5 -13z"/>
<path d="M1494 2238 l-19 -23 23 19 c21 18 27 26 19 26 -2 0 -12 -10 -23 -22z"/>
<path d="M392 2045 c0 -16 2 -22 5 -12 2 9 2 23 0 30 -3 6 -5 -1 -5 -18z"/>
<path d="M522 2035 c0 -16 2 -22 5 -12 2 9 2 23 0 30 -3 6 -5 -1 -5 -18z"/>
<path d="M533 1965 c0 -22 2 -30 4 -17 2 12 2 30 0 40 -3 9 -5 -1 -4 -23z"/>
<path d="M541 1894 c0 -11 3 -14 6 -6 3 7 2 16 -1 19 -3 4 -6 -2 -5 -13z"/>
<path d="M392 1850 c0 -14 2 -19 5 -12 2 6 2 18 0 25 -3 6 -5 1 -5 -13z"/>
<path d="M401 1794 c0 -11 3 -14 6 -6 3 7 2 16 -1 19 -3 4 -6 -2 -5 -13z"/>
<path d="M1801 1664 c0 -11 3 -14 6 -6 3 7 2 16 -1 19 -3 4 -6 -2 -5 -13z"/>
<path d="M1468 1664 c-5 -4 -8 -24 -8 -45 0 -48 22 -64 116 -84 75 -16 200
-20 208 -7 3 5 -34 14 -82 20 -83 11 -201 38 -211 47 -2 3 -7 21 -10 41 -3 20
-9 32 -13 28z"/>
<path d="M452 1594 c-6 -22 -16 -64 -22 -94 -41 -179 -157 -454 -252 -593 -73
-108 -119 -188 -123 -212 -2 -11 -8 -52 -15 -92 -19 -121 9 -258 79 -378 32
-55 137 -185 149 -185 25 0 207 134 288 212 93 90 244 266 244 284 0 5 -30 24
-66 43 -84 44 -178 130 -210 194 -14 27 -24 52 -22 57 2 5 32 -11 68 -35 67
-44 193 -95 236 -95 20 0 24 5 24 30 0 16 4 51 9 77 5 26 12 80 15 120 l6 71
-63 7 c-155 16 -234 64 -262 158 -19 64 -19 115 1 239 l16 99 -29 35 c-15 20
-36 49 -45 66 l-17 30 -9 -38z"/>
<path d="M644 1585 c10 -16 30 -42 44 -57 32 -35 15 -37 -54 -8 -59 26 -67 20
-17 -15 l38 -27 -30 5 c-16 3 -39 9 -50 13 -37 14 1 -21 44 -40 28 -13 43 -28
53 -55 15 -37 15 -38 -14 -50 -41 -18 -35 -31 10 -19 20 5 38 11 39 12 1 1 -4
25 -12 54 -13 51 -13 53 8 67 23 14 114 42 156 47 24 3 25 0 27 -57 3 -77 27
-142 66 -182 37 -38 44 -40 53 -13 5 16 10 17 28 9 33 -15 31 -69 -3 -87 l-25
-13 25 6 c34 8 42 11 63 20 10 4 35 5 55 2 27 -5 33 -4 22 4 -12 9 -12 12 -2
16 8 3 29 18 47 35 l34 29 4 -33 c3 -24 4 -19 5 18 2 60 -26 157 -66 229 l-27
50 -142 3 c-97 2 -162 -2 -205 -12 l-62 -14 -44 31 c-24 18 -54 39 -66 47
l-21 15 19 -30z m416 -97 c0 -43 -19 -79 -51 -97 -24 -13 -29 -13 -52 2 -28
18 -52 83 -41 111 5 13 21 16 75 16 l69 0 0 -32z m28 -109 c2 -17 -3 -29 -12
-32 -19 -8 -39 25 -30 48 10 24 39 13 42 -16z"/>
<path d="M1811 1543 c0 -34 -4 -68 -7 -77 -10 -25 -24 -19 -24 12 l-1 27 -15
-27 c-8 -15 -26 -30 -39 -33 -14 -3 -37 -8 -52 -11 -16 -3 -66 -17 -112 -31
l-83 -26 5 -51 c6 -58 23 -102 40 -104 7 0 29 -4 50 -8 29 -5 42 -3 58 12 11
10 17 24 14 32 -4 10 0 12 10 8 21 -8 45 48 45 102 0 36 3 40 31 46 53 10 59
8 59 -24 0 -33 19 -40 40 -15 10 12 10 15 0 15 -10 0 -10 3 0 15 7 8 9 15 4
15 -4 0 -3 5 4 12 14 14 16 32 3 23 -5 -3 -12 21 -16 52 -10 96 -12 101 -14
36z m-221 -183 c0 -11 -9 -29 -21 -41 -16 -16 -23 -18 -35 -8 -24 20 -16 45
19 57 17 5 33 10 35 11 1 1 2 -8 2 -19z m15 -70 c0 -7 -6 -15 -12 -17 -8 -3
-13 4 -13 17 0 13 5 20 13 18 6 -3 12 -11 12 -18z"/>
<path d="M701 1277 c-29 -32 -26 -39 9 -19 31 17 36 27 21 36 -4 3 -18 -5 -30
-17z"/>
<path d="M1791 1284 c0 -11 3 -14 6 -6 3 7 2 16 -1 19 -3 4 -6 -2 -5 -13z"/>
<path d="M755 1200 c-21 -41 -15 -47 15 -15 17 18 21 28 13 36 -8 8 -16 3 -28
-21z"/>
<path d="M1595 1130 c10 -16 106 -33 118 -21 8 8 2 11 -24 11 -19 0 -49 4 -67
9 -18 6 -30 6 -27 1z"/>
<path d="M1829 1074 c-34 -14 -37 -19 -43 -67 -3 -29 -9 -62 -12 -75 -5 -17
-3 -21 9 -16 13 5 340 -88 436 -124 19 -7 12 -13 -61 -55 l-83 -46 -222 71
c-192 62 -220 73 -205 84 15 12 14 13 -13 14 -23 0 -34 -7 -46 -29 -10 -17
-28 -30 -46 -34 -19 -4 -37 -19 -54 -44 -24 -38 -25 -38 -93 -38 -62 0 -70 2
-92 28 -19 23 -22 32 -13 48 13 26 69 60 83 51 15 -10 56 -10 56 0 0 4 -13 8
-29 8 -17 0 -33 5 -37 11 -4 7 -9 8 -13 1 -9 -14 -139 -78 -199 -97 -29 -10
-52 -21 -52 -26 0 -5 -9 -9 -19 -9 -11 0 -21 -3 -23 -7 -1 -5 -37 -24 -78 -43
-41 -19 -88 -46 -104 -60 -62 -54 -72 -136 -28 -220 26 -52 30 -54 122 -92 52
-22 99 -44 104 -49 6 -5 18 -9 28 -9 10 0 125 -43 254 -96 130 -52 244 -94
254 -92 11 2 226 116 479 253 l460 250 1 46 c0 45 -1 47 -40 63 -55 22 -53 46
6 74 44 22 45 24 42 63 l-3 42 -310 94 c-227 70 -317 101 -336 119 -29 28 -32
28 -80 8z m-193 -345 c45 -27 48 -69 6 -69 -15 0 -38 -7 -50 -16 -29 -20 -60
-10 -73 24 -9 24 -6 30 23 54 40 33 51 34 94 7z m831 -54 c13 -42 51 -18 -372
-240 -165 -87 -342 -180 -393 -207 l-92 -50 -15 36 c-17 39 -19 56 -7 56 4 0
198 99 432 220 234 121 428 220 431 220 3 0 10 -16 16 -35z m-1202 -269 c277
-121 300 -133 300 -156 0 -14 6 -31 13 -38 25 -27 10 -31 -40 -11 -195 77
-620 239 -628 239 -26 0 -42 93 -17 103 26 11 82 -9 372 -137z"/>
<path d="M2270 585 c-47 -24 -82 -44 -77 -44 10 -1 167 78 167 84 0 7 4 9 -90
-40z"/>
<path d="M1798 334 c-38 -19 -68 -37 -68 -39 0 -3 32 11 70 30 39 19 70 37 70
40 0 7 3 8 -72 -31z"/>
<path d="M960 457 c0 -3 20 -12 45 -20 45 -16 65 -14 23 2 -43 16 -68 22 -68
18z"/>
<path d="M1465 261 c22 -10 51 -21 65 -25 14 -3 7 2 -15 13 -22 10 -51 21 -65
25 -14 3 -7 -2 15 -13z"/>
<path d="M1772 1025 c0 -16 2 -22 5 -12 2 9 2 23 0 30 -3 6 -5 -1 -5 -18z"/>
<path d="M1545 900 c3 -5 10 -10 16 -10 5 0 9 5 9 10 0 6 -7 10 -16 10 -8 0
-12 -4 -9 -10z"/>
<path d="M1680 900 c0 -5 7 -7 15 -4 8 4 15 8 15 10 0 2 -7 4 -15 4 -8 0 -15
-4 -15 -10z"/>
<path d="M1735 900 c-16 -7 -17 -9 -3 -9 9 -1 20 4 23 9 7 11 7 11 -20 0z"/>
<path d="M970 789 c0 -5 5 -7 10 -4 6 3 10 8 10 11 0 2 -4 4 -10 4 -5 0 -10
-5 -10 -11z"/>
<path d="M1000 779 c0 -5 5 -7 10 -4 6 3 10 8 10 11 0 2 -4 4 -10 4 -5 0 -10
-5 -10 -11z"/>
<path d="M1030 770 c0 -5 5 -10 10 -10 6 0 10 5 10 10 0 6 -4 10 -10 10 -5 0
-10 -4 -10 -10z"/>
<path d="M1082 205 c0 -16 2 -22 5 -12 2 9 2 23 0 30 -3 6 -5 -1 -5 -18z"/>
<path d="M1071 134 c0 -11 3 -14 6 -6 3 7 2 16 -1 19 -3 4 -6 -2 -5 -13z"/>
</g>
</svg>
